<svg width="18" height="18" viewBox="0 0 18 18" fill="none" xmlns="http://www.w3.org/2000/svg">
<path d="M9 0C4.03754 0 0 4.03754 0 9C0 13.9625 4.03754 18 9 18C13.9625 18 18 13.9625 18 9C18 4.03754 13.9625 0 9 0ZM9 1.38462C13.2141 1.38462 16.6154 4.78592 16.6154 9C16.6154 13.2141 13.2141 16.6154 9 16.6154C4.78592 16.6154 1.38462 13.2141 1.38462 9C1.38462 4.78592 4.78592 1.38462 9 1.38462ZM8.30769 4.84615V8.30769H4.84615V9.69231H8.30769V13.1538H9.69231V9.69231H13.1538V8.30769H9.69231V4.84615H8.30769Z" fill="white"/>
</svg>
