<svg width="13" height="13" viewBox="0 0 13 13" fill="none" xmlns="http://www.w3.org/2000/svg">
<path d="M12.8312 0.50197C12.7309 0.348145 12.5938 0.221702 12.4322 0.134065C12.2707 0.046427 12.0899 0.000355478 11.906 1.21285e-05H8.69338C8.48474 -0.000974283 8.28026 0.0582275 8.1045 0.170502C7.92875 0.282777 7.7892 0.443347 7.70263 0.632916L6.49916 3.21545L5.28987 0.632916C5.2033 0.443347 5.06375 0.282777 4.888 0.170502C4.71224 0.0582275 4.50776 -0.000974283 4.29912 1.21285e-05H1.08793C0.904183 0.000820278 0.723611 0.0478838 0.56291 0.13685C0.40221 0.225817 0.266569 0.353813 0.168533 0.509001C0.0704966 0.66419 0.0132308 0.84156 0.00203176 1.02471C-0.00916729 1.20785 0.0260619 1.39086 0.104461 1.55681L2.82174 7.39116C2.60264 7.89903 2.48866 8.4459 2.48663 8.99889C2.48663 10.06 2.90876 11.0777 3.66017 11.8281C4.41157 12.5785 5.43069 13 6.49333 13C7.55598 13 8.5751 12.5785 9.3265 11.8281C10.0779 11.0777 10.5 10.06 10.5 8.99889C10.5016 8.44788 10.3874 7.90267 10.1649 7.39844L12.8968 1.55681C12.9746 1.38941 13.0093 1.20528 12.9979 1.02109C12.9864 0.836904 12.9291 0.658476 12.8312 0.50197ZM0.760104 1.25127C0.734507 1.19454 0.723121 1.13245 0.726928 1.07034C0.730736 1.00824 0.749623 0.947993 0.781959 0.894807C0.814569 0.843301 0.85976 0.800921 0.913283 0.771651C0.966806 0.742382 1.0269 0.727185 1.08793 0.727488H4.30057C4.37073 0.727241 4.4395 0.746952 4.49885 0.784313C4.55819 0.821674 4.60566 0.87514 4.63568 0.938456L6.53704 4.99777H6.49333C5.86457 4.99886 5.24488 5.14758 4.68428 5.43191C4.12368 5.71624 3.63789 6.12822 3.26612 6.63459L0.760104 1.25127ZM6.49333 12.2725C5.84497 12.2725 5.21116 12.0805 4.67206 11.7208C4.13296 11.3611 3.71278 10.8498 3.46466 10.2517C3.21654 9.65347 3.15162 8.99525 3.27811 8.36023C3.4046 7.72521 3.71682 7.1419 4.17529 6.68407C4.63375 6.22624 5.21788 5.91446 5.85379 5.78815C6.4897 5.66183 7.14884 5.72666 7.74785 5.97444C8.34687 6.22221 8.85886 6.6418 9.21907 7.18015C9.57928 7.7185 9.77155 8.35142 9.77155 8.99889C9.77155 9.42879 9.68676 9.85448 9.52201 10.2517C9.35726 10.6488 9.11579 11.0097 8.81138 11.3137C8.50697 11.6177 8.14558 11.8588 7.74785 12.0233C7.35012 12.1879 6.92384 12.2725 6.49333 12.2725ZM12.2411 1.25127L9.72055 6.63459C9.15327 5.85667 8.3222 5.31115 7.38209 5.09962L6.90129 4.0666L8.35827 0.938456C8.3883 0.87514 8.43576 0.821674 8.49511 0.784313C8.55445 0.746952 8.62323 0.727241 8.69338 0.727488H11.906C11.9672 0.726338 12.0276 0.741172 12.0813 0.770521C12.135 0.79987 12.18 0.842714 12.212 0.894807C12.2469 0.946824 12.2678 1.00687 12.2729 1.06926C12.278 1.13164 12.2671 1.1943 12.2411 1.25127Z" fill="#6C6C6C"/>
<path d="M6.55526 10.0501L7.30123 10.4415C7.32221 10.4526 7.34591 10.4576 7.36961 10.456C7.39331 10.4543 7.41607 10.446 7.43528 10.4321C7.4545 10.4181 7.4694 10.399 7.47829 10.377C7.48717 10.355 7.48969 10.331 7.48554 10.3076L7.33984 9.47829C7.33646 9.45801 7.33807 9.43721 7.34454 9.41769C7.35102 9.39817 7.36216 9.38052 7.377 9.36626L7.98019 8.77919C7.9976 8.76251 8.00991 8.74124 8.01569 8.71785C8.02148 8.69446 8.0205 8.66992 8.01287 8.64706C8.00524 8.62421 7.99128 8.60398 7.9726 8.58874C7.95391 8.57349 7.93129 8.56386 7.90734 8.56094L7.08196 8.44164C7.0612 8.43826 7.04159 8.42987 7.02483 8.41719C7.00807 8.40451 6.99467 8.38793 6.9858 8.36889L6.61281 7.6145C6.60241 7.59314 6.58621 7.57513 6.56605 7.56253C6.54589 7.54993 6.52258 7.54324 6.4988 7.54324C6.47501 7.54324 6.45171 7.54993 6.43155 7.56253C6.41139 7.57513 6.39519 7.59314 6.38479 7.6145L6.0118 8.36889C6.00315 8.38795 5.98991 8.40457 5.97326 8.41726C5.9566 8.42996 5.93706 8.43833 5.91637 8.44164L5.08225 8.5624C5.0583 8.56531 5.03567 8.57495 5.01699 8.59019C4.99831 8.60544 4.98434 8.62566 4.97671 8.64852C4.96908 8.67137 4.9681 8.69592 4.97389 8.71931C4.97968 8.7427 4.99199 8.76396 5.0094 8.78064L5.61259 9.36772C5.6273 9.38204 5.6383 9.39973 5.64465 9.41924C5.65099 9.43876 5.65249 9.45952 5.64901 9.47975L5.50331 10.3091C5.49917 10.3324 5.50168 10.3565 5.51057 10.3785C5.51946 10.4005 5.53436 10.4196 5.55357 10.4335C5.57279 10.4475 5.59555 10.4558 5.61925 10.4574C5.64295 10.4591 5.66664 10.4541 5.68762 10.4429L6.4336 10.0515C6.45208 10.041 6.47295 10.0353 6.49424 10.0351C6.51552 10.0348 6.53652 10.04 6.55526 10.0501Z" fill="#6C6C6C"/>
</svg>
