<svg width="6" height="13" viewBox="0 0 6 13" fill="none" xmlns="http://www.w3.org/2000/svg">
<path d="M1.24655 8.96552C1.24655 8.77222 1.08985 8.61552 0.896552 8.61552C0.751598 8.61552 0.61258 8.55793 0.510081 8.45544C0.407583 8.35294 0.35 8.21392 0.35 8.06897V5.37931C0.35 5.11547 0.454812 4.86243 0.641378 4.67586C0.827944 4.4893 1.08098 4.38448 1.34483 4.38448H4.03448C4.29833 4.38448 4.55137 4.4893 4.73793 4.67586C4.9245 4.86243 5.02931 5.11547 5.02931 5.37931V8.06897C5.02931 8.21392 4.97173 8.35294 4.86923 8.45544C4.76673 8.55793 4.62771 8.61552 4.48276 8.61552C4.28946 8.61552 4.13276 8.77222 4.13276 8.96552V12.1034C4.13276 12.2484 4.07518 12.3874 3.97268 12.4899L4.22016 12.7374L3.97268 12.4899C3.87018 12.5924 3.73116 12.65 3.58621 12.65H1.7931C1.64815 12.65 1.50913 12.5924 1.40663 12.4899L1.15915 12.7374L1.40663 12.4899C1.30413 12.3874 1.24655 12.2484 1.24655 12.1034V8.96552ZM2.68966 3.23621C2.40424 3.23621 2.12523 3.15157 1.88791 2.993C1.65059 2.83443 1.46563 2.60905 1.3564 2.34536C1.24718 2.08166 1.2186 1.7915 1.27428 1.51157C1.32996 1.23163 1.46741 0.974498 1.66923 0.772676C1.87105 0.570854 2.12819 0.433412 2.40812 0.37773C2.68805 0.322047 2.97821 0.350625 3.24191 0.45985C3.5056 0.569076 3.73098 0.754042 3.88955 0.991359C4.04812 1.22868 4.13276 1.50769 4.13276 1.7931C4.13276 2.17584 3.98072 2.5429 3.71008 2.81353C3.43945 3.08417 3.07239 3.23621 2.68966 3.23621Z" stroke="#5A5A5A" stroke-width="0.7" stroke-linecap="round" stroke-linejoin="round"/>
</svg>
