<svg width="13" height="14" viewBox="0 0 13 14" fill="none" xmlns="http://www.w3.org/2000/svg">
<path d="M13 3.66774C13.0005 3.57562 12.9841 3.4843 12.9517 3.39902C12.9194 3.31374 12.8717 3.23618 12.8115 3.17077L10.0555 0.202997C9.99476 0.138124 9.92273 0.0868006 9.84353 0.051968C9.76434 0.0171353 9.67954 -0.000520886 9.594 1.16991e-05C9.50845 -0.000520886 9.42365 0.0171353 9.34446 0.051968C9.26526 0.0868006 9.19323 0.138124 9.13249 0.202997L0.188511 9.83428C0.128268 9.89968 0.0806064 9.97725 0.0482595 10.0625C0.0159125 10.1478 -0.000483715 10.2391 1.08643e-05 10.3312V13.299C1.08643e-05 13.4847 0.0684927 13.6627 0.190391 13.794C0.31229 13.9252 0.477619 13.999 0.65001 13.999H3.406C3.49696 14.0043 3.58794 13.989 3.67304 13.954C3.75814 13.919 3.83547 13.8652 3.9 13.796L10.9655 6.14555L12.8115 4.1997C12.8708 4.13186 12.9192 4.05378 12.9545 3.96872C12.9608 3.91292 12.9608 3.85652 12.9545 3.80073C12.9575 3.76815 12.9575 3.73532 12.9545 3.70273L13 3.66774ZM3.13951 12.5991H1.30001V10.6182L7.7545 3.66774L9.594 5.64859L3.13951 12.5991ZM10.5105 4.66166L8.671 2.68081L9.594 1.69389L11.427 3.66774L10.5105 4.66166Z" fill="#8C8C8C"/>
</svg>
