<svg width="13" height="12" viewBox="0 0 13 12" fill="none" xmlns="http://www.w3.org/2000/svg">
<path d="M10.7308 2.30435H9.26481L8.54399 1.19348C8.50537 1.134 8.45308 1.08522 8.39173 1.05147C8.33039 1.01772 8.26189 1.00004 8.19231 1H4.80769C4.73811 1.00004 4.66961 1.01772 4.60827 1.05147C4.54693 1.08522 4.49463 1.134 4.45601 1.19348L3.73466 2.30435H2.26923C1.93261 2.30435 1.60978 2.44177 1.37175 2.68638C1.13372 2.931 1 3.26276 1 3.6087V9.69565C1 10.0416 1.13372 10.3734 1.37175 10.618C1.60978 10.8626 1.93261 11 2.26923 11H10.7308C11.0674 11 11.3902 10.8626 11.6283 10.618C11.8663 10.3734 12 10.0416 12 9.69565V3.6087C12 3.26276 11.8663 2.931 11.6283 2.68638C11.3902 2.44177 11.0674 2.30435 10.7308 2.30435Z" stroke="#5A5A5A" stroke-width="0.7" stroke-linecap="round" stroke-linejoin="round"/>
<circle cx="6.50006" cy="6.5" r="2.5" stroke="#5A5A5A" stroke-width="0.7" stroke-linecap="round" stroke-linejoin="round"/>
</svg>
