<svg width="11" height="15" viewBox="0 0 11 15" fill="none" xmlns="http://www.w3.org/2000/svg">
<path d="M3.25 9.45H7.1875M3.25 11.4H5.21875M9.4375 1H1.5625C1.41332 1 1.27024 1.06848 1.16475 1.19038C1.05926 1.31228 1 1.47761 1 1.65V13.35C1 13.5224 1.05926 13.6877 1.16475 13.8096C1.27024 13.9315 1.41332 14 1.5625 14H9.4375C9.58668 14 9.72976 13.9315 9.83525 13.8096C9.94074 13.6877 10 13.5224 10 13.35V1.65C10 1.47761 9.94074 1.31228 9.83525 1.19038C9.72976 1.06848 9.58668 1 9.4375 1ZM3.25 3.6H7.1875V6.85H3.25V3.6Z" stroke="#5A5A5A" stroke-width="0.7" stroke-linecap="round" stroke-linejoin="round"/>
</svg>
